<?xml version="1.0" encoding="utf-8"?>
<!-- Generator: Adobe Illustrator 24.2.3, SVG Export Plug-In . SVG Version: 6.00 Build 0)  -->
<svg version="1.1" id="Layer_1" xmlns="http://www.w3.org/2000/svg" xmlns:xlink="http://www.w3.org/1999/xlink" x="0px" y="0px"
	 viewBox="0 0 55 55" style="enable-background:new 0 0 55 55;" xml:space="preserve">
<style type="text/css">
	.st0{fill:#FFFFFF;}
</style>
<g id="XMLID_1_">
	<path id="XMLID_5_" class="st0" d="M27.5,0C12.3,0,0,12.3,0,27.5S12.3,55,27.5,55S55,42.7,55,27.5S42.7,0,27.5,0z M42.8,40.9
		c0,1.2-1,2.2-2.3,2.2H14.4c-1.3,0-2.3-1-2.3-2.2V14.4c0-1.2,1-2.2,2.3-2.2h26.1c1.3,0,2.3,1,2.3,2.2V40.9L42.8,40.9z"/>
	<path id="XMLID_6_" class="st0" d="M32.8,23.8c-2.5,0-3.6,1.4-4.2,2.3l0,0l0,0l0,0v-2H24c0.1,1.3,0,13.9,0,13.9h4.6v-7.8
		c0-0.4,0-0.8,0.2-1.1c0.3-0.8,1.1-1.7,2.4-1.7c1.7,0,2.3,1.3,2.3,3.2v7.5h4.6v-8C38.1,25.8,35.9,23.8,32.8,23.8z"/>
	<path id="XMLID_7_" class="st0" d="M19.1,17.4c-1.6,0-2.6,1-2.6,2.4c0,1.3,1,2.4,2.6,2.4l0,0c1.6,0,2.6-1.1,2.6-2.4
		C21.7,18.4,20.7,17.4,19.1,17.4z"/>
	<rect id="XMLID_8_" x="16.8" y="24.1" class="st0" width="4.6" height="13.9"/>
</g>
</svg>
