<?xml version="1.0" encoding="utf-8"?>
<!-- Generator: Adobe Illustrator 24.2.3, SVG Export Plug-In . SVG Version: 6.00 Build 0)  -->
<svg version="1.1" id="layer" xmlns="http://www.w3.org/2000/svg" xmlns:xlink="http://www.w3.org/1999/xlink" x="0px" y="0px"
	 viewBox="0 0 599.5 100.6" style="enable-background:new 0 0 599.5 100.6;" xml:space="preserve">
<style type="text/css">
	.st0{fill:#FF6C2C;}
</style>
<g>
	<path class="st0" d="M107.6,10.8l4.5-9.2h4.1l1.7,38.4h-4.3c-2.8-10.8-6.4-18.8-10.7-23.9c-5.3-6.4-11.7-9.6-19.1-9.6
		c-8,0-14.5,3.6-19.6,10.7c-5,7.1-7.6,19.2-7.6,36.3c0,14.3,2.9,25.3,8.6,32.8c4.9,6.4,11.8,9.5,20.7,9.5c7.7,0,14.2-2.5,19.5-7.5
		c5.2-5,8.7-12.5,10.3-22.5h4.6c-1.3,11.4-5.2,20.1-11.7,26.2s-14.6,9.2-24.4,9.2c-8,0-15.3-2-21.9-6s-12-9.8-15.9-17.3
		c-4-7.5-6-15.7-6-24.7c0-9.5,2.1-18.4,6.2-26.8c4.1-8.3,9.4-14.6,15.8-18.8c6.4-4.2,13.3-6.3,20.7-6.3c4.1,0,8.1,0.7,12,2.1
		C98.8,4.9,103,7.4,107.6,10.8"/>
	<path class="st0" d="M155.5,36.6c8.1,0,15,2.9,20.5,8.8s8.3,13.6,8.3,23.2c0,6.6-1.2,12.3-3.7,16.9c-2.5,4.7-6,8.4-10.6,11.1
		s-9.5,4.1-14.8,4.1c-7.8,0-14.5-3-19.9-8.9s-8.2-13.6-8.2-23.1s2.7-17.2,8.2-23.2C140.7,39.5,147.5,36.6,155.5,36.6 M155.5,41.1
		c-4.8,0-8.8,2.2-11.9,6.6c-3.1,4.4-4.6,11.3-4.6,20.7c0,9.6,1.5,16.6,4.6,21s7,6.6,11.9,6.6c5,0,9.1-2.2,12.2-6.6
		c3.1-4.4,4.7-11.7,4.7-21.7c0-9.3-1.5-16.1-4.6-20.3C164.7,43.2,160.6,41.1,155.5,41.1"/>
	<path class="st0" d="M207.8,2.3v45c2.5-3.6,5.4-6.3,8.5-8c3.1-1.8,6.5-2.7,10.1-2.7c7.1,0,13.1,2.8,18,8.3
		c4.9,5.5,7.4,12.9,7.4,21.9c0,9.9-2.6,17.8-7.9,23.8s-11.8,9.1-19.6,9.1c-3.7,0-7.1-0.7-10.1-2.2s-6.1-3.9-9.3-7.4
		c-2.5,3.9-4.8,7.1-7.1,9.6l-2.6-0.9c1.2-4.9,1.8-10.1,1.8-15.5V15c0-2.1-0.7-3.8-2.2-5s-3.6-1.8-6.3-1.8h-2.7V3.4L207.8,2.3z
		 M224,42.3c-4.9,0-8.8,2.1-11.9,6.3c-3.1,4.2-4.6,11.2-4.6,21c0,9.3,1.5,15.9,4.5,19.9s6.9,6,11.8,6c4.4,0,7.9-2,10.6-5.9
		c3.4-5,5-12.1,5-21.3c0-9.1-1.5-15.7-4.4-19.8C232.1,44.3,228.5,42.3,224,42.3"/>
	<path class="st0" d="M281.4,2.3v87.6c0,1.2,0.4,2.1,1.1,2.8c1.1,0.9,2.4,1.3,3.9,1.3h6.4v4.8h-34.3V94h6.1c2,0,3.5-0.5,4.4-1.4
		c1-0.9,1.5-2.3,1.5-4V15c0-2.1-0.6-3.7-1.7-4.7c-1.6-1.4-3.5-2.1-5.9-2.1h-5.4V3.4L281.4,2.3z"/>
	<path class="st0" d="M353,69h-43.3c0.2,9.2,1.9,15.7,5.2,19.5c3.7,4.3,8.4,6.4,14.1,6.4c8.4,0,15.2-4.8,20.3-14.4l4.2,1.8
		c-6.3,12.2-15.4,18.3-27.2,18.3c-8.1,0-14.9-2.9-20.4-8.8s-8.3-13.3-8.3-22.5c0-9.8,2.7-17.7,8.2-23.8c5.4-6,12.1-9.1,20.1-9.1
		c5.9,0,10.9,1.5,15.2,4.5c4.3,3,7.5,7.3,9.6,13C352.1,58,352.9,63,353,69 M309.7,64.4h26.2c1.5,0,2.8-0.5,3.6-1.6
		c0.9-1.1,1.3-2.9,1.3-5.4c0-4.7-1.5-8.8-4.4-12.1c-2.9-3.3-6.4-5-10.4-5c-4.5,0-8.3,2-11.4,6C311.4,50.4,309.8,56.4,309.7,64.4"/>
	<path class="st0" d="M365.7,76c2.7,7.4,5.7,12.6,9.2,15.5s7.7,4.3,12.8,4.3c4.7,0,8.3-1,10.8-3.1c2.5-2,3.8-4.6,3.8-7.8
		c0-1.8-0.5-3.4-1.4-4.7c-0.9-1.4-2.2-2.4-3.8-3c-1.6-0.7-5.9-1.6-12.7-2.9c-6.5-1.3-11.1-2.6-13.7-4.1c-2.6-1.4-4.6-3.4-6-5.9
		s-2.2-5.2-2.2-8.1c0-4.4,1.5-8.5,4.5-12.1c3.8-4.6,9.2-6.9,16.1-6.9c5.3,0,10.1,1.7,14.6,5l4.3-4.5h2.6l1.7,21.6H402
		c-1.9-6.1-4.5-10.5-7.7-13.2s-7.2-4-12-4c-4.1,0-7.3,1-9.6,3c-2.3,2-3.5,4.4-3.5,7.3c0,2.5,1.1,4.6,3.2,6.3
		c2.1,1.7,6.2,3.1,12.4,4.1c7.2,1.2,11.8,2.2,14,3c3.5,1.3,6.3,3.3,8.2,6c1.9,2.7,2.9,6,2.9,9.8c0,5.3-2.1,9.8-6.3,13.5
		c-4.2,3.7-9.5,5.5-16,5.5c-6,0-11.5-2-16.7-5.9l-4.7,5.4h-3.4L361.5,76L365.7,76L365.7,76z"/>
	<path class="st0" d="M414.5,3.4l23.1-1.1v66l19.7-17.1c1.9-1.7,2.8-3.1,2.8-4.4c0-1.1-0.6-1.9-1.7-2.5c-1.7-0.9-4.4-1.3-8.2-1.4
		v-4.5h32.2v4.5c-6.4,0.3-11.2,2-14.6,5L454,60.2l22.5,31c1.4,1.8,3.8,2.8,7.2,2.8h3.4v4.8h-33V94h3.3c2.4,0,4.1-0.2,4.9-0.6
		s1.3-0.9,1.3-1.5s-0.2-1.2-0.7-1.8L446.4,67l-8.8,7.8v15.3c0,1.2,0.4,2.2,1.2,2.8c1.2,0.8,2.8,1.2,4.8,1.2h4.2v4.8h-32.5v-4.8h5.2
		c2.1,0,3.7-0.4,4.8-1.4c1-0.9,1.6-2.1,1.6-3.6V14.5c0-1.9-0.6-3.4-1.9-4.3c-1.8-1.3-4.2-1.9-7.3-1.9h-3.3V3.4H414.5z"/>
	<path class="st0" d="M488.8,38.4l24.1-0.7v52c0,1.4,0.3,2.4,1,3c1,0.9,2.2,1.3,3.8,1.3h6.8v4.8h-34.4V94h6.4c1.9,0,3.3-0.5,4.2-1.4
		s1.3-2.3,1.3-4V50.5c0-2.4-0.7-4.2-2.1-5.5c-1.4-1.2-3.4-1.8-6.1-1.8h-5V38.4z M505.6,2.3c1.9,0,3.6,0.7,5.1,2.2s2.2,3.2,2.2,5.2
		c0,1.9-0.7,3.6-2.1,5c-1.4,1.4-3.1,2.1-5.1,2.1s-3.7-0.7-5.1-2.2c-1.4-1.4-2.2-3.1-2.2-5.1c0-1.9,0.7-3.6,2.2-5.1
		C502,3,503.7,2.3,505.6,2.3"/>
	<path class="st0" d="M550.4,2.3v87.6c0,1.2,0.4,2.1,1.1,2.8c1.1,0.9,2.4,1.3,3.9,1.3h6.4v4.8h-34.3V94h6.1c2,0,3.5-0.5,4.4-1.4
		c1-0.9,1.4-2.3,1.4-4V15c0-2.1-0.6-3.7-1.7-4.7c-1.6-1.4-3.5-2.1-5.9-2.1h-5.4V3.4L550.4,2.3z"/>
	<path class="st0" d="M588.1,2.3v87.6c0,1.2,0.4,2.1,1.1,2.8c1.1,0.9,2.4,1.3,3.9,1.3h6.4v4.8h-34.3V94h6.1c2,0,3.5-0.5,4.4-1.4
		c1-0.9,1.4-2.3,1.4-4V15c0-2.1-0.6-3.7-1.7-4.7c-1.6-1.4-3.5-2.1-5.9-2.1h-5.4V3.4L588.1,2.3z"/>
	<path class="st0" d="M1.8,83.6l-2.1-1.5v-1.2l8.8-0.1v1.1c-2.7,0.7-4.7,1.7-5.9,3c-1.2,1.3-1.9,2.8-1.9,4.6c0,1.4,0.4,2.6,1.3,3.5
		s1.9,1.4,3.1,1.4c0.8,0,1.4-0.2,2-0.5s1.1-0.9,1.4-1.6c0.4-0.7,0.8-2,1.2-3.9c0.6-2.7,1.2-4.6,1.8-5.6c0.6-1.1,1.3-1.9,2.3-2.4
		c0.9-0.5,2-0.8,3.2-0.8c2.2,0,4,0.7,5.4,2.2s2.1,3.3,2.1,5.7c0,2.5-0.8,4.6-2.4,6.5l2.2,1.8V97H15v-1.3c2.6-0.5,4.6-1.5,6.1-3.1
		s2.2-3.4,2.2-5.4c0-1.6-0.5-2.9-1.4-3.9c-1-1-2.1-1.5-3.5-1.5c-0.8,0-1.4,0.2-2,0.6s-1.1,1-1.5,1.8s-0.9,2.4-1.4,4.9
		c-0.6,2.7-1.3,4.5-2.1,5.4c-1.1,1.4-2.7,2-4.7,2c-2.1,0-3.8-0.7-5.2-2c-1.4-1.4-2-3.1-2-5.2c0-1,0.2-2,0.5-2.9
		C0.4,85.5,1,84.6,1.8,83.6"/>
	<path class="st0" d="M0,77.1V66h1.2v2.2c0,0.6,0.1,1,0.3,1.3c0.2,0.2,0.5,0.4,0.9,0.4H16c1.4,0,2.5-0.1,3.2-0.4
		c1.1-0.4,1.9-1,2.6-2c0.6-1,1-2.3,1-3.8c0-2.2-0.6-3.9-1.7-5C20,57.5,18.4,57,16.6,57H5.5c-1,0-1.7,0.1-2.2,0.2s-0.9,0.3-1.2,0.6
		c-0.3,0.3-0.5,0.6-0.6,1s-0.2,1-0.2,2H0v-9.1h1.2v0.7c0,1,0.3,1.8,0.8,2.3s1.3,0.7,2.4,0.7h11.8c2.6,0,4.6,0.7,5.9,2.2
		c1.6,1.7,2.3,3.9,2.3,6.6c0,2.4-0.3,4.3-1,5.6c-0.7,1.4-1.7,2.4-2.9,3c-1,0.5-2.2,0.7-3.6,0.7H2.4c-0.4,0-0.7,0.1-0.9,0.4
		c-0.2,0.3-0.3,0.6-0.3,1.1v2.3H0V77.1z"/>
	<path class="st0" d="M0,49.5v-5.8l18.9-14.5H5.2c-1.4,0-2.4,0.3-3.1,0.9c-0.6,0.6-0.9,1.4-0.9,2.6H0v-8.4h1.2
		c0,0.9,0.1,1.5,0.4,1.9c0.2,0.4,0.7,0.8,1.3,1.1c0.6,0.3,1.3,0.5,2.1,0.5h19.1v1.5l-19.7,15h14.5c1.3,0,2.3-0.3,2.9-1
		c0.6-0.7,1-1.7,1-3.1H24v9.2h-1.2c0-1.1-0.4-2.1-1.1-2.7c-0.7-0.7-1.6-1-2.6-1H2.8L2.5,46c-0.6,0.5-0.9,0.9-1,1.2
		c-0.2,0.3-0.2,0.7-0.2,1.2v1.1L0,49.5L0,49.5z"/>
	<path class="st0" d="M0,23.9V13.4h1.2v1.2c0,1,0.1,1.6,0.2,1.9c0.2,0.3,0.4,0.4,0.6,0.4c0.3,0,0.5-0.1,0.8-0.2l9.5-6.1L4.2,6.2
		C3.8,6,3.5,5.9,3,5.9c-0.6,0-1,0.2-1.4,0.6C1.3,6.9,1.1,7.4,1.1,8.1v1.1H0V0h1.2c0,1,0.2,1.9,0.6,2.5s1.1,1.2,2.1,1.7l10.2,5.6h7.6
		c0.4,0,0.7-0.1,0.9-0.3c0.2-0.3,0.3-0.8,0.3-1.4V6h1.2v11.1h-1.2v-2.2c0-0.6-0.1-1-0.3-1.3s-0.5-0.4-0.9-0.4h-7.4L2.7,20.7
		c-0.5,0.3-0.8,0.7-1.1,1.1C1.4,22.2,1.3,23,1.3,24H0V23.9z"/>
</g>
</svg>
