<?xml version="1.0" encoding="utf-8"?>
<!-- Generator: Adobe Illustrator 24.2.3, SVG Export Plug-In . SVG Version: 6.00 Build 0)  -->
<svg version="1.1" id="Layer_4" xmlns="http://www.w3.org/2000/svg" xmlns:xlink="http://www.w3.org/1999/xlink" x="0px" y="0px"
	 viewBox="0 0 1280 720" style="enable-background:new 0 0 1280 720;" xml:space="preserve">
<style type="text/css">
	.st0{fill:#6997A2;}
	.st1{fill:#D05F4C;}
	.st2{fill:#ECB172;}
	.st3{fill:#F4EFE6;}
	.st4{fill:none;}
	.st5{fill:#ECE2D8;}
	.st6{display:none;fill:#ECE2D8;}
	.st7{fill:#FAC900;}
	.st8{fill:#3F484C;}
	.st9{fill:#2C3438;}
	.st10{fill:#231F20;}
	.st11{fill:#E1DDD6;}
	.st12{fill:#D3D0CA;}
</style>
<rect class="st0" width="1280" height="720"/>
<g id="Layer_2">
	<g>
		<polygon class="st1" points="794.62,669.74 794.62,680.93 544.44,680.93 544.44,664.08 780.01,669.74 		"/>
		<polygon class="st1" points="793.4,593.06 545.96,593.06 558.7,377.13 747.8,377.13 		"/>
		<path class="st2" d="M513.9,593.06l32.05,0l12.74-215.92H536.8c-12.94,0-25.89,11.49-25.89,26.76l-21.9,193.01l0,0
			c-9.42,33.49-0.34,88.17,24.89,83.77h30.53v-10.62H513.9C489.01,665.42,487.9,599.01,513.9,593.06z"/>
		<path class="st3" d="M789.7,593.06c-12.83,25.56-12.83,51.12,0,76.67l-264.18,0.33c-22.9,21.9-24.23-53.76,0-61.07v-15.94H789.7z"
			/>
		<g>
			<polygon class="st4" points="789.7,593.06 525.52,593.06 789.7,593.06 			"/>
			<polygon class="st4" points="504.28,593.06 504.28,593.06 525.52,593.06 			"/>
			<path class="st4" d="M781.03,619.31l-6.93,7.6l5.92,42.82l9.68-0.01C781.26,652.92,778.37,636.12,781.03,619.31z"/>
			<g>
				<polygon class="st5" points="525.52,670.06 780.01,669.74 780.01,669.74 				"/>
				<path class="st5" d="M525.52,609l257.7,0.47c0,0,0,0.01,0,0.01c1.57-5.47,3.73-10.95,6.48-16.42H525.52h-21.24
					c-21.76,6.56-12.84,82.43,12.14,80.77C502.83,670.08,505.06,615.16,525.52,609z"/>
				<path class="st6" d="M774.1,626.92l6.93-7.6c0.52-3.28,1.25-6.56,2.19-9.84c0,0,0-0.01,0-0.01L525.52,609
					c-20.46,6.17-22.69,61.08-9.1,64.83c2.84-0.19,5.88-1.36,9.1-3.76l254.49-0.32L774.1,626.92z"/>
			</g>
		</g>
		<g>
			<path class="st5" d="M782.22,613.34H518.76c-0.67,0.7-1.31,1.46-1.92,2.28h264.87C781.87,614.86,782.04,614.1,782.22,613.34z"/>
			<path class="st5" d="M512.26,624.23h268.14c0.07-0.76,0.16-1.52,0.25-2.28H513.21C512.88,622.69,512.57,623.45,512.26,624.23z"/>
			<path class="st5" d="M509.69,632.84h270.4c-0.01-0.76-0.02-1.52-0.01-2.28H510.24C510.04,631.31,509.86,632.07,509.69,632.84z"/>
			<path class="st5" d="M508.29,641.44h272.45c-0.1-0.76-0.19-1.52-0.26-2.28H508.56C508.46,639.92,508.37,640.68,508.29,641.44z"/>
			<path class="st5" d="M507.85,649.24h274.32c-0.18-0.76-0.34-1.52-0.5-2.28H507.9C507.87,647.72,507.85,648.48,507.85,649.24z"/>
			<path class="st5" d="M508.23,657.03h276.16c-0.26-0.76-0.5-1.52-0.73-2.28H508.02C508.08,655.52,508.14,656.28,508.23,657.03z"/>
			<path class="st5" d="M509.39,664.82h0.33c-0.11-0.38-0.22-0.77-0.33-1.17V664.82z"/>
			<path class="st5" d="M509.39,663.65c0.1,0.4,0.21,0.79,0.33,1.17h277.67v-0.01c-0.33-0.76-0.65-1.51-0.96-2.27H509.39V663.65z"/>
		</g>
	</g>
</g>
<g>
	<path class="st7" d="M710.95,233.04c-4.6-38.78-35.28-63.18-70.8-64.33h-0.31c-35.52,1.15-66.2,25.55-70.8,64.33
		c-0.73,6.16-0.6,12.39,0.3,18.53c3.37,23.13,12.9,31.23,25.7,48.56c4.05,5.33,6.27,13.73,7.41,23.9h37.39h0.31h37.39
		c1.14-10.17,3.36-18.57,7.41-23.9c12.81-17.32,22.34-25.42,25.7-48.56C711.55,245.44,711.68,239.21,710.95,233.04z"/>
	<polygon class="st8" points="639.85,324.03 598.72,324.03 601.25,337.92 640,337.92 640,337.92 678.75,337.92 681.28,324.03 	"/>
	<path class="st9" d="M640,337.92h-35.49c-2.43,0-3.59,3.05-1.74,4.62c0.02,0.01,0.03,0.03,0.05,0.04c0.63,0.52,1.02,1.27,1.02,2.08
		v32.26c0,0.65,0.24,1.28,0.68,1.77l18.52,20.53c9.07,10.05,24.83,10.05,33.9,0l18.52-20.53c0.44-0.48,0.68-1.11,0.68-1.77v-32.26
		c0-0.81,0.39-1.56,1.02-2.08c0.02-0.01,0.03-0.03,0.05-0.04c1.86-1.57,0.7-4.62-1.74-4.62H640z"/>
	<g>
		<path class="st10" d="M656.95,399.22l6.47-7.17h-46.84l6.47,7.17C632.12,409.27,647.88,409.27,656.95,399.22z"/>
	</g>
	<path class="st8" d="M603.84,349.07c-2.33,0.33-2.4,7.14,0,6.9l72.62-4.88c2.27-0.2,2.17-7.18,0-6.95L603.84,349.07z"/>
	<path class="st8" d="M603.84,359.95c-2.33,0.33-2.4,7.14,0,6.9l72.62-4.88c2.27-0.2,2.17-7.18,0-6.95L603.84,359.95z"/>
	<path class="st8" d="M603.84,370.7c-2.33,0.33-2.4,7.14,0,6.9l72.62-4.88c2.27-0.2,2.17-7.18,0-6.95L603.84,370.7z"/>
</g>
<g id="Layer_3">
	<path class="st3" d="M1228.7,81.53c-2.36,0-4.68,0.12-6.98,0.35c-12.47-27.72-40.33-47.02-72.69-47.02
		c-16.06,0-31,4.75-43.51,12.92c-21.62-39.39-63.49-66.1-111.59-66.1c-52.39,0-97.38,31.68-116.88,76.92
		c-41.94,3.83-74.8,39.09-74.8,82.04c0,45.5,36.89,82.39,82.39,82.39h344.07c39.07,0,70.75-31.68,70.75-70.75
		S1267.77,81.53,1228.7,81.53z"/>
	<path class="st11" d="M950.6,385.93c2.36,0,4.68,0.12,6.98,0.35c12.47-27.72,40.33-47.02,72.69-47.02c16.06,0,31,4.75,43.51,12.92
		c21.62-39.39,63.49-66.1,111.59-66.1c52.39,0,97.38,31.68,116.88,76.92c41.94,3.83,74.8,39.09,74.8,82.04
		c0,45.5-36.89,82.39-82.39,82.39H950.6c-39.07,0-70.75-31.68-70.75-70.75S911.53,385.93,950.6,385.93z"/>
	<path class="st11" d="M132.24,137.82c2.36,0,4.68,0.12,6.98,0.35c12.47-27.72,40.33-47.02,72.69-47.02c16.06,0,31,4.75,43.51,12.92
		c21.62-39.39,63.49-66.1,111.59-66.1c52.39,0,97.38,31.68,116.88,76.92c41.94,3.83,74.8,39.09,74.8,82.04
		c0,45.5-36.89,82.39-82.39,82.39H132.24c-39.07,0-70.75-31.68-70.75-70.75S93.17,137.82,132.24,137.82z"/>
	<path class="st11" d="M-232.1-72.72c2.36,0,4.68,0.12,6.98,0.35c12.47-27.72,40.33-47.02,72.69-47.02c16.06,0,31,4.75,43.51,12.92
		c21.62-39.39,63.49-66.1,111.59-66.1c52.39,0,97.38,31.68,116.88,76.92c41.94,3.83,74.8,39.09,74.8,82.04
		c0,45.5-36.89,82.39-82.39,82.39H-232.1c-39.07,0-70.75-31.68-70.75-70.75S-271.17-72.72-232.1-72.72z"/>
	<path class="st12" d="M357.35,499.25c-2.36,0-4.68,0.12-6.98,0.35c-12.47-27.72-40.33-47.02-72.69-47.02
		c-16.06,0-31,4.75-43.51,12.92c-21.62-39.39-63.49-66.1-111.59-66.1c-52.39,0-97.38,31.68-116.88,76.92
		c-41.94,3.83-74.8,39.09-74.8,82.04c0,45.5,36.89,82.39,82.39,82.39h344.07c39.07,0,70.75-31.68,70.75-70.75
		C428.1,530.93,396.42,499.25,357.35,499.25z"/>
</g>
</svg>
