<?xml version="1.0" encoding="utf-8"?>
<!-- Generator: Adobe Illustrator 24.2.3, SVG Export Plug-In . SVG Version: 6.00 Build 0)  -->
<svg version="1.1" id="Layer_1" xmlns="http://www.w3.org/2000/svg" xmlns:xlink="http://www.w3.org/1999/xlink" x="0px" y="0px"
	 viewBox="0 0 317.96 286.17" style="enable-background:new 0 0 317.96 286.17;" xml:space="preserve">
<style type="text/css">
	.st0{fill:#21409A;}
	.st1{fill:#6069B0;}
</style>
<g>
	<path class="st0" d="M115.64,71.22c3.34-3.79,6.46-5.12,10.7-5.12c7.13,0,12.92,5.79,12.92,13.15v65.51l61.72-73.53
		c3.12-3.79,6.68-5.12,10.47-5.12c7.13,0,13.15,5.79,13.15,13.15v133.69c0,7.13-6.02,13.15-13.15,13.15s-13.15-6.02-13.15-13.15
		V112.44l-59.05,70.41v30.08c0,7.13-5.79,13.15-12.92,13.15c-7.35,0-13.15-6.02-13.15-13.15V112.44L21.84,221.62
		c-2.45,2.9-6.24,4.46-9.58,4.46C5.57,226.07,0,220.5,0,213.82c0-2.67,0.67-5.12,2.9-8.02L115.64,71.22z"/>
	<path class="st1" d="M198.45,79.41c0-7.45,6.02-13.31,13.15-13.31c7.13,0,13.15,5.87,13.15,13.31v121.85h47.01
		c6.68,0,12.03,5.42,12.03,12.41c0,6.77-5.35,12.41-12.03,12.41H211.6c-7.13,0-13.15-6.09-13.15-13.31V79.41z"/>
	<g>
		<path class="st1" d="M169.98,26c31.27,0,60.68,12.18,82.79,34.29s34.29,51.52,34.29,82.79s-12.18,60.68-34.29,82.79
			s-51.52,34.29-82.79,34.29s-60.68-12.18-82.79-34.29c-22.11-22.11-34.29-51.52-34.29-82.79s12.18-60.68,34.29-82.79
			C109.3,38.18,138.7,26,169.98,26 M169.98,0C90.95,0,26.89,64.06,26.89,143.08s64.06,143.08,143.08,143.08
			c79.02,0,143.08-64.06,143.08-143.08S249,0,169.98,0L169.98,0z"/>
	</g>
</g>
</svg>
