<?xml version="1.0" encoding="utf-8"?>
<!-- Generator: Adobe Illustrator 24.2.3, SVG Export Plug-In . SVG Version: 6.00 Build 0)  -->
<svg version="1.1" id="Layer_1" xmlns="http://www.w3.org/2000/svg" xmlns:xlink="http://www.w3.org/1999/xlink" x="0px" y="0px"
	 viewBox="0 0 498 498.08" style="enable-background:new 0 0 498 498.08;" xml:space="preserve">
<style type="text/css">
	.st0{fill:#6069B0;}
	.st1{fill:none;}
	.st2{fill:#323233;}
	.st3{fill:#3E342C;}
	.st4{fill:#FADEAA;}
	.st5{fill:#515153;}
	.st6{fill:#D8D9DA;}
	.st7{fill:#FEC777;}
	.st8{fill:#2A211A;}
	.st9{fill:#303032;}
	.st10{fill:#DC9657;}
	.st11{fill:#FFFFFF;}
	.st12{fill:#231F20;}
</style>
<g>
	<circle class="st0" cx="249" cy="249" r="249"/>
	<g>
		<path class="st1" d="M269.55,497.09c4.59-0.38,9.14-0.86,13.65-1.48l0,0C278.69,496.22,274.14,496.7,269.55,497.09z"/>
		<path class="st1" d="M264.43,497.48c-1.54,0.1-3.09,0.18-4.63,0.25C261.34,497.66,262.89,497.57,264.43,497.48z"/>
		<path class="st1" d="M236.86,497.69c-4-0.2-7.97-0.49-11.92-0.87C228.89,497.2,232.86,497.5,236.86,497.69z"/>
		<path class="st2" d="M224.92,496.82c0.01,0,0.01,0,0.02,0c3.95,0.38,7.92,0.67,11.92,0.87c4.02,0.19,8.07,0.31,12.14,0.31
			c3.62,0,7.21-0.12,10.8-0.27c1.55-0.07,3.09-0.15,4.63-0.25c1.72-0.1,3.42-0.25,5.13-0.39c4.58-0.39,9.14-0.86,13.65-1.48
			L224.92,496.82z"/>
		<path class="st3" d="M152.54,276.62v-31.75h-0.82c-9.63,0-17.44-7.81-17.44-17.44v-17.16c0-7.38,4.59-13.68,11.07-16.22
			c0.02,2.62,0.05,5.23,0.08,7.83c0.02,1.99,0.04,3.98,0.07,5.95c0.01,1.29,1.86,1.49,2.15,0.23c0.67-2.89,1.39-5.73,2.13-8.55
			c0.59-2.25,1.21-4.45,1.83-6.66c0.04,0,0.07-0.01,0.11-0.01h0.82v-3.3c3.24-10.94,6.98-21.28,11.19-31.09
			c13.02-30.39,30.56-55.53,52.03-76.08c49.51,25.49,88.88,49.81,120.67,100.2c1.96,3.11,3.9,6.33,5.8,9.65v0.62h0.37
			c9.63,0,17.44,7.81,17.44,17.44v17.16c0,9.63-7.81,17.44-17.44,17.44h-0.37v31.75c0,35.4-20.33,66.02-49.94,80.9
			c15.68,12.24,35.72,11.24,57.35,5.41c1.86-0.5,3.77-0.84,5.68-1.11c28.09-3.89,34.73-24.94,35.11-50.99
			c21.43-0.52,23.5-22.47,22.7-47.61c-0.23-7.32-2.41-14.56-6.71-20.79c-10.52-15.19-12.76-33.33-11.24-52.82
			c0.93-11.86-1.05-23.78-6.19-34.74c-12.08-25.78-37.16-56.34-70.97-88.59c-0.65-0.62-1.32-1.21-2.03-1.76
			c-2.71-2.16-9.94-7.86-13.67-10.38c-1.2-0.81-2.43-1.6-3.67-2.35c-2.49-1.51-5.05-2.91-7.69-4.18
			c-11.87-5.72-25.18-8.92-39.23-8.92h-8.69c-24.94,0-47.53,10.09-63.9,26.42l-0.08,0.06c-0.47,0.39-0.92,0.8-1.36,1.22
			c-33.96,32.35-59.18,62.63-71.3,88.49c-5.13,10.96-7.12,22.88-6.19,34.74c1.53,19.49-0.72,37.63-11.24,52.82
			c-4.31,6.22-6.48,13.46-6.71,20.79c-0.8,25.14,1.28,47.09,22.7,47.61c0.38,26.05,7.02,47.1,35.11,50.99
			c1.92,0.27,3.83,0.61,5.68,1.11c21.52,5.8,41.46,6.81,57.1-5.23C173.04,342.91,152.54,312.17,152.54,276.62z M342.23,184.56v2.84
			c-0.07-1.04-0.14-2.07-0.21-3.11L342.23,184.56z"/>
		<path class="st2" d="M293,385.61h-8.79l1,0.81l-11.48,31.93c-0.58,1.61-2.84,1.67-3.5,0.09l-0.28-0.69l-20.29,28.98
			c-0.82,1.17-2.56,1.17-3.37-0.01l-19.93-28.75l-0.19,0.47c-0.66,1.58-2.92,1.53-3.5-0.09l-11.48-31.93l1-0.81h-10.52
			c-33.71,0-61.04,27.33-61.04,61.04v26.57c25.92,12.55,54.34,20.72,84.31,23.6l58.28-1.22l0,0c24.99-3.44,48.79-10.56,70.84-20.84
			v-28.11C354.04,412.94,326.71,385.61,293,385.61z"/>
		<path class="st4" d="M247.38,402.1H249c6.06-9.65,12.9-17.23,20.91-21.65v-15.16c-5.87,1.2-11.95,1.83-18.18,1.83h-8.69
			c-5.82,0-11.51-0.57-17.03-1.62v14.69C234.23,384.57,241.21,392.27,247.38,402.1z"/>
		<path class="st5" d="M249.25,434.23c-0.63,0.85-1.91,0.83-2.51-0.04l-16.87-24.67l-3.51,8.45l19.93,28.75
			c0.82,1.18,2.55,1.18,3.37,0.01l20.29-28.98l-3.09-7.44L249.25,434.23z"/>
		<path class="st6" d="M249.25,434.23l17.6-23.92l-5.01-12.05L249,402.1h-1.62l-12.84-3.84l-4.68,11.26l16.87,24.67
			C247.34,435.06,248.62,435.08,249.25,434.23z"/>
		<path class="st4" d="M151.61,192.85c-0.63,2.2-1.25,4.41-1.83,6.66c0.89-0.33,1.81-0.61,2.77-0.8v-5.86h-0.82
			C151.68,192.84,151.65,192.85,151.61,192.85z"/>
		<path class="st4" d="M138.38,218.83v-2.9c0-5.75,2.78-10.84,7.05-14.04c-0.03-2.6-0.06-5.21-0.08-7.83
			c-6.48,2.54-11.07,8.84-11.07,16.22v17.16c0,9.63,7.81,17.44,17.44,17.44h0.82v-8.83C144.47,234.47,138.38,227.36,138.38,218.83z"
			/>
		<path class="st4" d="M360.03,227.44v-17.16c0-9.63-7.81-17.44-17.44-17.44h-0.37v6.51c6.87,2.38,11.82,8.89,11.82,16.58v2.9
			c0,7.68-4.94,14.2-11.82,16.58v9.47h0.37C352.22,244.87,360.03,237.07,360.03,227.44z"/>
		<path class="st7" d="M147.65,208.06c-0.29,1.26-2.14,1.07-2.15-0.23c-0.02-1.97-0.04-3.95-0.07-5.94
			c-4.27,3.2-7.05,8.29-7.05,14.04v2.9c0,8.54,6.09,15.64,14.17,17.22v-37.34c-0.95,0.19-1.87,0.46-2.77,0.8
			C149.04,202.33,148.32,205.16,147.65,208.06z"/>
		<path class="st7" d="M354.04,218.83v-2.9c0-7.68-4.94-14.2-11.82-16.58v36.05C349.1,233.02,354.04,226.51,354.04,218.83z"/>
		<path class="st8" d="M342.23,184.56l-0.21-0.26c0.07,1.03,0.14,2.07,0.21,3.11V184.56z"/>
		<path class="st8" d="M251.73,367.12c6.23,0,12.31-0.63,18.18-1.83c7.88-1.61,15.38-4.26,22.37-7.77
			c29.61-14.87,49.94-45.5,49.94-80.9v-31.75v-9.47v-36.05v-6.51v-0.62c-1.91-3.32-3.84-6.54-5.8-9.65v6.65v5.61v35.85
			c0,11.87-6.61,32.28-16.34,43.92c-5.57,6.66-14.87,8.85-22.97,5.73l-21.19-8.17c-4.03-1.55-8.16-2.71-12.35-3.52
			c-2.65,3.08-6.53,5.07-10.91,5.07h-2.76c-4.57,0-8.6-2.16-11.24-5.48c-5.2,0.81-10.33,2.12-15.3,4.07l-20.23,7.94
			c-8.12,3.19-17.49,1.01-23.08-5.69c-9.72-11.65-16.31-32.02-16.31-43.88v-35.85v-5.61v-30.77c-4.2,9.81-7.95,20.15-11.19,31.09
			v3.3v5.86v37.34v8.83v31.75c0,35.54,20.5,66.28,50.31,81.09c7.22,3.59,14.99,6.23,23.15,7.79c5.52,1.05,11.2,1.62,17.03,1.62
			L251.73,367.12L251.73,367.12z M229.95,308.54c0.33-1.66,1.92-2.74,3.59-2.41c16.76,3.3,28.81,0.58,36.83-8.33
			c1.13-1.25,3.06-1.35,4.32-0.23c1.25,1.13,1.36,3.06,0.23,4.32c-7.06,7.84-16.48,11.72-28.57,11.72c-4.32,0-8.98-0.5-13.99-1.48
			C230.7,311.81,229.62,310.2,229.95,308.54z"/>
		<path class="st4" d="M215.76,82.37c-21.47,20.55-39.01,45.69-52.03,76.08v30.77h30.59c0.52-0.24,1.09-0.4,1.7-0.4h19
			c0.28,0,0.47,0.18,0.6,0.4h15.9c1.63,0,2.95,1.32,2.95,2.95v2.66v7.42h31.05v-7.42v-2.66c0-1.63,1.32-2.95,2.95-2.95h15.6
			c0.13-0.22,0.32-0.4,0.6-0.4h19c0.61,0,1.18,0.16,1.7,0.4h31.05v-6.65C304.64,132.18,265.27,107.86,215.76,82.37z"/>
		<path class="st4" d="M184.14,210.73c0,8.51,6.94,13.89,15.51,13.89h12.36c8.56,0,15.51-5.39,15.51-13.89V195.4h-43.37
			L184.14,210.73L184.14,210.73z M205.43,199.7c5.1,0,9.23,4.13,9.23,9.23s-4.13,9.23-9.23,9.23c-5.09,0-9.23-4.13-9.23-9.23
			S200.33,199.7,205.43,199.7z"/>
		<path class="st4" d="M322.93,210.12c0,11.24-9.19,20.35-20.53,20.35h-16.36c-11.34,0-20.53-9.11-20.53-20.35v-2.35h-31.05v2.35
			c0,11.24-9.17,20.35-20.48,20.35h-16.32c-11.31,0-20.48-9.11-20.48-20.35v-15.29h-13.46v35.85c0,11.86,6.59,32.23,16.31,43.88
			c5.59,6.7,14.96,8.87,23.08,5.69l20.23-7.94c4.97-1.95,10.1-3.26,15.3-4.07c-1.98-2.47-3.21-5.56-3.21-8.97V229.5
			c0-7.98,6.47-14.45,14.45-14.45h2.76c7.98,0,14.45,6.47,14.45,14.45v29.77c0,3.6-1.36,6.85-3.54,9.38
			c4.19,0.81,8.32,1.96,12.35,3.52l21.19,8.17c8.1,3.12,17.4,0.93,22.97-5.73c9.74-11.64,16.34-32.05,16.34-43.92v-35.85h-13.49
			v15.28H322.93z"/>
		<path class="st4" d="M272.49,210.73c0,8.51,6.96,13.89,15.54,13.89h12.39c8.58,0,15.54-5.39,15.54-13.89V195.4h-43.47
			L272.49,210.73L272.49,210.73z M295.83,199.7c5.09,0,9.23,4.13,9.23,9.23s-4.13,9.23-9.23,9.23s-9.23-4.13-9.23-9.23
			S290.74,199.7,295.83,199.7z"/>
		<path class="st9" d="M205.43,218.15c5.1,0,9.23-4.13,9.23-9.23s-4.13-9.23-9.23-9.23c-5.09,0-9.23,4.13-9.23,9.23
			S200.33,218.15,205.43,218.15z"/>
		<path class="st9" d="M295.83,218.15c5.09,0,9.23-4.13,9.23-9.23s-4.13-9.23-9.23-9.23s-9.23,4.13-9.23,9.23
			S290.74,218.15,295.83,218.15z"/>
		<path class="st10" d="M267.1,229.49c0-7.98-6.47-14.45-14.45-14.45h-2.76c-7.98,0-14.45,6.47-14.45,14.45v29.77
			c0,3.41,1.23,6.5,3.21,8.97c2.65,3.31,6.67,5.48,11.24,5.48h2.76c4.38,0,8.26-1.99,10.91-5.07c2.17-2.53,3.54-5.78,3.54-9.38
			L267.1,229.49L267.1,229.49z"/>
		<path class="st3" d="M215.02,188.81h-19c-0.61,0-1.18,0.16-1.7,0.4h21.3C215.5,188.99,215.3,188.81,215.02,188.81z"/>
		<path class="st3" d="M303.67,188.81h-19c-0.28,0-0.47,0.18-0.6,0.4h21.3C304.85,188.97,304.28,188.81,303.67,188.81z"/>
		<path class="st11" d="M222.66,418.35c0.58,1.61,2.84,1.67,3.5,0.09l0.19-0.47l3.51-8.45l4.68-11.26l12.84,3.84
			c-6.18-9.84-13.16-17.53-21.37-21.92c-1.49-0.8-3.01-1.52-4.59-2.09l-9.25,7.51l-1,0.81L222.66,418.35z"/>
		<path class="st11" d="M249,402.1l12.84-3.84l5.01,12.05l3.09,7.44l0.28,0.69c0.66,1.58,2.92,1.53,3.5-0.09l11.48-31.93l-1-0.81
			l-9.24-7.51c-1.74,0.63-3.41,1.45-5.05,2.35C261.9,384.88,255.06,392.45,249,402.1z"/>
		<path class="st12" d="M284.07,189.22h-15.6c-1.63,0-2.95,1.32-2.95,2.95v2.66v7.42h-31.05v-7.42v-2.66c0-1.63-1.32-2.95-2.95-2.95
			h-15.9h-21.3h-30.59v5.61h13.46v15.29c0,11.24,9.17,20.35,20.48,20.35h16.32c11.31,0,20.48-9.11,20.48-20.35v-2.35h31.05v2.35
			c0,11.24,9.19,20.35,20.53,20.35h16.36c11.34,0,20.53-9.11,20.53-20.35v-15.29h13.49v-5.61h-31.05H284.07z M227.51,210.73
			c0,8.51-6.94,13.89-15.51,13.89h-12.36c-8.56,0-15.51-5.39-15.51-13.89V195.4h43.37L227.51,210.73L227.51,210.73z M315.96,210.73
			c0,8.51-6.96,13.89-15.54,13.89h-12.39c-8.58,0-15.54-5.39-15.54-13.89V195.4h43.47L315.96,210.73L315.96,210.73z"/>
		<path class="st11" d="M274.92,301.9c1.13-1.26,1.03-3.19-0.23-4.32s-3.19-1.03-4.32,0.23c-8.03,8.91-20.07,11.64-36.83,8.33
			c-1.67-0.33-3.26,0.75-3.59,2.41s0.75,3.26,2.41,3.59c5.02,0.99,9.68,1.48,13.99,1.48C258.44,313.62,267.85,309.74,274.92,301.9z"
			/>
	</g>
</g>
</svg>
