<?xml version="1.0" encoding="utf-8"?>
<!-- Generator: Adobe Illustrator 24.2.3, SVG Export Plug-In . SVG Version: 6.00 Build 0)  -->
<svg version="1.1" id="Layer_1" xmlns="http://www.w3.org/2000/svg" xmlns:xlink="http://www.w3.org/1999/xlink" x="0px" y="0px"
	 viewBox="0 0 1280 720" style="enable-background:new 0 0 1280 720;" xml:space="preserve">
<style type="text/css">
	.st0{fill:#6997A2;}
	.st1{fill:#58595B;}
	.st2{fill:#F4EFE6;}
	.st3{fill:#375A63;}
	.st4{fill:#BCBEC0;}
	.st5{fill:#FFFFFF;}
	.st6{fill:#6795A0;}
	.st7{fill:#ECB172;}
</style>
<g id="Layer_1_1_">
	<rect class="st0" width="1280" height="720"/>
	<g>
		<g>
			<rect x="543.7" y="591.69" class="st1" width="192.65" height="46.7"/>
			<path class="st2" d="M1030.94,596.46H249.06c-9.64,0-17.46-7.82-17.46-17.46V57.44c0-9.64,7.82-17.46,17.46-17.46h781.87
				c9.64,0,17.46,7.82,17.46,17.46V579C1048.4,588.64,1040.58,596.46,1030.94,596.46z"/>
			<g>
				<path class="st3" d="M1048.4,57.44c0-9.64-7.82-17.46-17.46-17.46H249.06c-9.64,0-17.46,7.82-17.46,17.46v444.81h816.79V57.44
					H1048.4z"/>
			</g>
			<rect x="253.07" y="60.31" class="st4" width="776.83" height="425.32"/>
			<path class="st2" d="M814.31,680.02H465.75c-6.57,0-11.9-5.33-11.9-11.9l0,0c0-6.57,5.33-11.9,11.9-11.9h348.56
				c6.57,0,11.9,5.33,11.9,11.9l0,0C826.21,674.7,820.88,680.02,814.31,680.02z"/>
			<rect x="543.7" y="613.78" class="st5" width="192.65" height="46.7"/>
			<rect x="253.07" y="60.31" class="st2" width="776.83" height="13.53"/>
			<circle class="st1" cx="640" cy="551.12" r="22.36"/>
		</g>
		<circle class="st3" cx="261.28" cy="67.07" r="4.89"/>
		<rect x="272.71" y="63.67" class="st3" width="32.53" height="6.8"/>
		<rect x="313.03" y="63.67" class="st3" width="13.53" height="6.8"/>
		<circle class="st3" cx="1018.1" cy="67.07" r="4.89"/>
		<rect x="974.15" y="63.67" class="st3" width="32.53" height="6.8"/>
		<rect x="952.82" y="63.67" class="st3" width="13.53" height="6.8"/>
		<rect x="334.1" y="63.67" class="st3" width="16.05" height="6.8"/>
		<rect x="356.99" y="63.67" class="st3" width="17.71" height="6.8"/>
		<rect x="381.71" y="63.54" class="st3" width="16.05" height="6.8"/>
		<rect x="404.73" y="63.67" class="st3" width="21.75" height="6.8"/>
	</g>
</g>
<g id="Layer_2_1_">
	<g>
		<g>
			<rect x="392.88" y="97.89" class="st6" width="494.24" height="16.63"/>
			<rect x="392.88" y="114.52" class="st2" width="494.24" height="10.96"/>
			<rect x="392.88" y="125.48" class="st3" width="494.24" height="332.57"/>
			<rect x="513.26" y="125.48" class="st6" width="107.35" height="15.65"/>
			<rect x="513.26" y="141.13" class="st6" width="373.86" height="300.87"/>
		</g>
		<g>
			<rect x="536.02" y="183.64" class="st7" width="46.11" height="8.35"/>
			<rect x="408.41" y="239" class="st7" width="29.32" height="8.35"/>
			<rect x="536.02" y="241.81" class="st7" width="31.83" height="8.35"/>
			<rect x="536.02" y="289.28" class="st7" width="38" height="8.35"/>
			<rect x="536.02" y="336.75" class="st7" width="38" height="8.35"/>
			<rect x="542.19" y="352.14" class="st2" width="55.17" height="7.56"/>
			<rect x="542.19" y="303.24" class="st2" width="42.39" height="7.56"/>
			<rect x="542.19" y="255.5" class="st2" width="44.71" height="7.56"/>
			<rect x="542.19" y="206.4" class="st2" width="40.95" height="7.56"/>
			<rect x="542.19" y="147.52" class="st2" width="47.89" height="7.56"/>
			<rect x="408.51" y="226.48" class="st2" width="31.83" height="7.56"/>
			<rect x="408.51" y="251.72" class="st2" width="31.83" height="7.56"/>
			<rect x="402.14" y="213.96" class="st2" width="31.83" height="7.56"/>
			<rect x="402.14" y="172.56" class="st7" width="35.59" height="8.35"/>
			<rect x="415.45" y="200.69" class="st7" width="35.59" height="8.35"/>
			<rect x="402.14" y="160.04" class="st2" width="38.2" height="7.56"/>
			<rect x="415.16" y="188.21" class="st2" width="36.17" height="7.56"/>
			<rect x="395.49" y="147.52" class="st7" width="43.69" height="7.56"/>
			<rect x="535.13" y="159.25" class="st2" width="3.3" height="7.56"/>
			<rect x="535.13" y="218.92" class="st2" width="3.3" height="7.56"/>
			<rect x="535.13" y="266.85" class="st2" width="3.3" height="7.56"/>
			<rect x="535.13" y="314.97" class="st2" width="3.3" height="7.56"/>
			<rect x="535.13" y="362.51" class="st2" width="3.3" height="7.56"/>
			<rect x="542.19" y="195.41" class="st2" width="33.13" height="7.56"/>
			<rect x="392.88" y="197.47" class="st6" width="120.38" height="12.72"/>
			<rect x="516.01" y="147.52" class="st4" width="9.98" height="292.72"/>
			<rect x="555.31" y="130.95" class="st4" width="22.96" height="6.78"/>
			<rect x="443.23" y="130.95" class="st2" width="22.96" height="6.78"/>
			<rect x="660.26" y="130.95" class="st4" width="22.96" height="6.78"/>
			<rect x="396.55" y="101.74" class="st2" width="162.53" height="8.61"/>
		</g>
		<rect x="883.65" y="281.98" class="st4" width="2.31" height="21.52"/>
		<rect x="725.07" y="446.3" class="st4" width="158.96" height="8.87"/>
		<rect x="396.06" y="446.3" class="st4" width="25.17" height="8.87"/>
		<rect x="428.86" y="446.3" class="st4" width="14.76" height="8.87"/>
	</g>
</g>
</svg>
