<?xml version="1.0" encoding="utf-8"?>
<!-- Generator: Adobe Illustrator 24.2.3, SVG Export Plug-In . SVG Version: 6.00 Build 0)  -->
<svg version="1.1" id="katman_1" xmlns="http://www.w3.org/2000/svg" xmlns:xlink="http://www.w3.org/1999/xlink" x="0px" y="0px"
	 viewBox="0 0 340.93 71.22" style="enable-background:new 0 0 340.93 71.22;" xml:space="preserve">
<style type="text/css">
	.st0{fill:#5FCF80;}
</style>
<g>
	<path class="st0" d="M101,52.39c-6.61,0-9.59-4.25-9.59-9.86V22.76c0-1.95,1.55-3.5,3.57-3.5c1.97,0,3.57,1.55,3.57,3.5v3.4h6.66
		c1.76,0,3.3,1.25,3.3,3c0,1.65-1.55,2.9-3.3,2.9h-6.66v10.31c0,2.4,1.12,3.7,3.46,3.7c1.17,0,2.35-0.3,3.3-0.55
		c2.72-0.6,4.42,1,4.42,2.85c0,1.1-0.59,2.25-2.24,2.95C105.63,52.14,103.03,52.39,101,52.39"/>
	<path class="st0" d="M132.02,28.72c0,1.35-1.12,3.15-3.36,3.15c-1.23,0-2.4-0.5-4-0.45c-1.76,0.05-2.77,0.95-2.77,3.25v14.16
		c0,1.9-1.55,3.4-3.57,3.4c-1.97,0-3.57-1.5-3.57-3.4V33.42c0-5.2,3.25-8.56,9.38-8.56c1.76,0,3.52,0.15,4.58,0.4
		C130.9,25.82,132.02,27.07,132.02,28.72"/>
	<path class="st0" d="M152.27,36.38c0.38,0,0.59-0.2,0.59-0.6c0.16-3.05-1.86-5.1-5.33-5.1c-3.79,0-5.65,2.25-5.65,5.7H152.27z
		 M159.73,37.58c0,1.95-1.07,3.35-3.68,3.35h-14.18v0.5c0,3.16,2.56,4.86,6.13,4.86c1.92,0,3.89-0.45,5.7-1.1
		c2.82-1,4.69,0.8,4.69,2.65c0,0.95-0.38,2-1.81,2.8c-1.97,1.1-5.38,1.75-8.79,1.75c-7.35,0-12.31-4.35-12.84-10.61
		c-0.16-1.95-0.11-4.71,0-6.26c0.64-6.51,5.59-10.66,12.58-10.66c7.25,0,12.2,4.55,12.2,11.61V37.58z"/>
	<path class="st0" d="M182.38,36.38c0.38,0,0.59-0.2,0.59-0.6c0.16-3.05-1.86-5.1-5.33-5.1c-3.79,0-5.65,2.25-5.65,5.7H182.38z
		 M189.84,37.58c0,1.95-1.07,3.35-3.68,3.35h-14.18v0.5c0,3.16,2.56,4.86,6.13,4.86c1.92,0,3.89-0.45,5.7-1.1
		c2.82-1,4.69,0.8,4.69,2.65c0,0.95-0.38,2-1.81,2.8c-1.97,1.1-5.38,1.75-8.79,1.75c-7.35,0-12.31-4.35-12.84-10.61
		c-0.16-1.95-0.11-4.71,0-6.26c0.64-6.51,5.59-10.66,12.58-10.66c7.25,0,12.2,4.55,12.2,11.61V37.58z"/>
	<path class="st0" d="M203.11,26.82c1.17-1,3.89-1.95,6.71-1.95c6.77,0,10.77,3.81,10.77,10.96v12.86c0,2-1.49,3.55-3.62,3.55
		c-1.97,0-3.52-1.55-3.52-3.55V36.18c0-3.05-1.86-4.76-4.8-4.76c-2.24,0-4.42,0.95-5.54,2.1v15.27c0,1.9-1.49,3.45-3.52,3.45
		c-1.97,0-3.62-1.55-3.62-3.45V19.51c0-1.95,1.55-3.45,3.57-3.45c1.97,0,3.57,1.5,3.57,3.45V26.82z"/>
	<path class="st0" d="M245.27,36.13c-0.16-2.85-2.29-4.86-5.65-4.86c-3.36,0-5.44,2-5.7,4.86c-0.11,1.35-0.11,3.7,0,5.01
		c0.27,2.85,2.35,4.85,5.7,4.85c3.36,0,5.44-2,5.65-4.85C245.37,39.83,245.37,37.48,245.27,36.13 M239.62,52.39
		c-6.98,0-12.26-4.2-12.79-10.16c-0.16-2-0.16-5.15,0-7.16c0.53-6.01,5.81-10.21,12.79-10.21c7.03,0,12.2,4.2,12.74,10.21
		c0.16,2,0.16,5.1,0,7.11C251.82,48.19,246.65,52.39,239.62,52.39"/>
	<path class="st0" d="M258.59,28.57c0-2,1.28-3.55,3.52-3.55c2.02,0,3.62,1.55,3.62,3.55v12.76c0,3.01,2.08,4.66,5.11,4.66
		c2.35,0,4.11-0.65,5.22-1.3V28.47c0-1.9,1.49-3.45,3.57-3.45c1.97,0,3.57,1.55,3.57,3.45v18.72c0,1.15-0.32,1.8-1.28,2.35
		c-1.65,1.1-5.54,2.85-11.25,2.85c-7.67,0-12.1-3.91-12.1-10.96V28.57z"/>
	<path class="st0" d="M311.35,43.68c0,5.61-4.96,8.71-11.14,8.71c-5.01,0-8.21-1.35-10.18-2.9c-1.28-1-1.65-2.9-0.64-4.15
		c1.06-1.35,2.88-1.65,4.64-0.6c1.65,1,3.84,1.65,6.34,1.65c2.77,0,4.05-0.95,4.05-2.3c0-1.1-0.85-1.85-3.09-2.35
		c-1.92-0.4-1.86-0.35-3.94-0.85c-4.37-1.05-7.78-3.35-7.78-7.66c0-5.41,4.64-8.36,10.87-8.36c3.36,0,6.82,0.8,8.69,2.25
		c1.55,1.2,1.44,3.25,0.32,4.45c-1.07,1.1-2.88,1.25-4.64,0.4c-1.39-0.65-3.25-1.1-4.64-1.1c-2.67,0-3.79,0.95-3.79,2.15
		c0,1.05,0.8,1.75,3.2,2.25l3.78,0.8C308.74,37.28,311.35,39.73,311.35,43.68"/>
	<path class="st0" d="M333.47,36.38c0.37,0,0.58-0.2,0.58-0.6c0.16-3.05-1.86-5.1-5.33-5.1c-3.79,0-5.65,2.25-5.65,5.7H333.47z
		 M340.93,37.58c0,1.95-1.07,3.35-3.68,3.35h-14.18v0.5c0,3.16,2.56,4.86,6.13,4.86c1.92,0,3.89-0.45,5.7-1.1
		c2.82-1,4.69,0.8,4.69,2.65c0,0.95-0.38,2-1.81,2.8c-1.97,1.1-5.38,1.75-8.79,1.75c-7.35,0-12.31-4.35-12.84-10.61
		c-0.16-1.95-0.11-4.71,0-6.26c0.64-6.51,5.59-10.66,12.58-10.66c7.25,0,12.2,4.55,12.2,11.61V37.58z"/>
	<path class="st0" d="M61.59,13c-2.51-1.33-6.53,0.81-8.96,4.79L48.22,25c-1.61,3-1.39,6.57,0.65,9.32L49,34.49
		c2.04,2.75,4.79,5.3,5.69,6.21c0.53,0.53,0.94,1.19,1.17,1.95c0.74,2.5-0.81,5.1-3.48,5.8c-2.67,0.7-5.43-0.76-6.18-3.26
		c-0.19-0.63-0.23-1.26-0.14-1.87c0.14-1.04-0.21-2.72-1.79-4.37c-1.58-1.65-4.81,1.47-5.85,4.68l-0.05,0.15
		c-1.04,3.21-1.7,6.01-1.51,6.28c0.12,0.16,0.23,0.33,0.33,0.5c1.46,2.59,0.42,5.8-2.34,7.17c-2.75,1.38-6.18,0.39-7.64-2.19
		c-1.46-2.59-0.42-5.8,2.34-7.17c0.12-0.06,0.25-0.12,0.38-0.17c0.21-0.09,0.81-1.44,1.33-3.03c0.52-1.6,0.94-2.89,0.94-2.89
		c0.06-0.17,0.11-0.34,0.15-0.5l2.79-9.34l-2.98,5.74c-0.35-1.09-0.94-1.13-2.22-0.27c-0.77,0.52-2.05,1.54-2.67,1.96
		c-1.17,0.79-2.15,2.31-2.67,3.25c-0.3,0.55-0.73,1.05-1.28,1.47c-2.13,1.63-5.27,1.32-7-0.68c-1.73-2.01-1.41-4.95,0.73-6.57
		c0.62-0.48,1.34-0.79,2.08-0.94c1.25-0.26,5.52-2.7,8.09-4.43c0.46-0.31,0.84-0.6,1.16-0.87l6.86-4.89l-5.98,3.03
		c0,0-0.61-0.06-1.35,0.02c-2.19,0.23-4.44,0.52-4.86,1.03c-0.25,0.3-0.55,0.57-0.9,0.81c-1.99,1.35-4.78,0.93-6.21-0.95
		c-1.43-1.87-0.98-4.49,1.01-5.84c0.82-0.55,1.78-0.81,2.72-0.79c1.6,0.04,5.81,0.84,9.33,0.26l0.91-0.15
		c3.52-0.59,7.74-3.47,9.42-6.43c0,0,1.64-2.71,3.67-6.06c2.03-3.35,1.88-7.01-0.33-8.19l-4.01-2.13c-2.02-1.07-5.33-1.08-7.36,0
		L3.68,15.41C1.65,16.49,0,19.15,0,21.33v28.56c0,2.18,1.65,4.84,3.68,5.91l27.6,14.61c2.02,1.07,5.33,1.07,7.36,0l27.51-14.61
		c2.02-1.07,3.68-3.74,3.68-5.92V21.33c0-2.18-1.66-4.84-3.68-5.92C66.14,15.41,64.11,14.33,61.59,13"/>
</g>
</svg>
